<svg class="c-nav__logo" width="103" height="24" viewBox="0 0 103 24" fill="none" xmlns="http://www.w3.org/2000/svg">
<g clip-path="url(#clip0)">
<path class="c-logo--white" fill-rule="evenodd" clip-rule="evenodd" d="M8.484 4.95348L12.8293 16.0225H4.13937L8.484 4.95348ZM9.14589 0.564638L0.23242 23.1467L0.159157 23.3293H1.25747L3.77431 16.9339H13.1943L15.6821 23.3293H19.6156L10.692 0.64927L10.6585 0.564638H9.14589Z" fill="#121A1F"></path>
<path class="c-logo--white" fill-rule="evenodd" clip-rule="evenodd" d="M21.6417 0.564638L28.8404 12.708L22.1438 23.3293H23.3571L29.4284 13.6743L35.1644 23.3293H39.1781L31.5032 10.375L33.156 7.80253L32.587 6.79138L30.9436 9.40801L25.6838 0.564638H21.6417Z" fill="#121A1F"></path>
<path class="c-logo--white" fill-rule="evenodd" clip-rule="evenodd" d="M53.1215 0.564638L47.0501 10.2202L41.3147 0.564638H37.3004L44.9747 13.519L43.3225 16.0914L43.8909 17.1032L45.5337 14.4859L50.7947 23.3293H54.8368L47.6381 11.1865L54.3347 0.564638H53.1215Z" fill="#121A1F"></path>
<path class="c-logo--white" fill-rule="evenodd" clip-rule="evenodd" d="M59.6097 0.564638V23.3293H74.4853V22.4185H63.3202V12.2413H69.7389V11.3312H63.3202V1.47537H74.1954V0.564638H59.6097Z" fill="#121A1F"></path>
<path class="c-logo--white" fill-rule="evenodd" clip-rule="evenodd" d="M85.7204 10.1236C83.1682 9.03096 80.2762 7.79243 80.2762 5.13727C80.2762 2.86801 82.4078 1.15769 85.2341 1.15769C88.3238 1.15769 90.6531 3.29685 90.6531 6.13264V6.26717H91.5581V6.13264C91.5581 2.7038 88.615 0.118113 84.7124 0.118113C80.4284 0.118113 77.3185 2.83706 77.3185 6.58359C77.3185 10.6958 80.9419 12.3366 83.8541 13.6554L83.9053 13.6787C86.6621 14.935 89.2648 16.1204 89.2648 18.6025C89.2648 20.8699 87.1314 22.4539 84.0764 22.4539C80.5251 22.4539 77.8472 20.1771 77.8472 17.1569V17.023H76.9427V17.1569C76.9427 20.7278 80.3173 23.5251 84.6259 23.5251C89.1676 23.5251 92.3387 20.8396 92.3387 16.9952C92.3387 12.9632 88.9743 11.5194 85.7204 10.1236Z" fill="#121A1F"></path>
<path fill-rule="evenodd" clip-rule="evenodd" d="M96.6701 23.3293H102.754V22.4192H96.6701V23.3293Z" fill="#E0582A"></path>
</g>
<defs>
<clipPath id="clip0">
<rect width="102.947" height="24" fill="white"></rect>
</clipPath>
</defs>
</svg>